<svg width="300" height="300" viewBox="0 0 300 300" fill="none" xmlns="http://www.w3.org/2000/svg">
<g clip-path="url(#clip0_212_486)">
<rect width="300" height="300" fill="white"/>
<rect width="300" height="300" fill="url(#paint0_linear_212_486)"/>
<rect width="300" height="300" fill="url(#paint1_linear_212_486)"/>
<path d="M180.702 66H173.578C171.962 66 170.651 67.3133 170.651 68.9333V73.0583C170.651 74.6783 171.962 75.9915 173.578 75.9915H180.702C182.319 75.9915 183.628 74.6783 183.628 73.0583V68.9333C183.628 67.3133 182.319 66 180.702 66Z" fill="#1D1C1B"/>
<path d="M227.031 80.3227H231.65C233.267 80.3227 234.578 81.636 234.578 83.2561V87.381C234.578 89.001 233.267 90.3142 231.65 90.3142H227.031C225.415 90.3142 224.105 89.001 224.105 87.381V83.2561C224.105 81.636 225.415 80.3227 227.031 80.3227Z" fill="#1D1C1B"/>
<path d="M245.498 94.6455H215.758C214.142 94.6455 212.831 95.9587 212.831 97.5788V101.704C212.831 103.324 214.142 104.637 215.758 104.637H245.498C247.114 104.637 248.425 103.324 248.425 101.704V97.5788C248.425 95.9587 247.114 94.6455 245.498 94.6455Z" fill="#1D1C1B"/>
<path d="M218.045 109.278H184.464C182.848 109.278 181.537 110.591 181.537 112.211V116.336C181.537 117.956 182.848 119.269 184.464 119.269H218.045C219.662 119.269 220.972 117.956 220.972 116.336V112.211C220.972 110.591 219.662 109.278 218.045 109.278Z" fill="#1D1C1B"/>
<path d="M70.3888 123.6H35.9266C34.3109 123.6 33 124.914 33 126.534V130.659C33 132.279 34.3109 133.592 35.9266 133.592H70.3888C72.0056 133.592 73.3154 132.279 73.3154 130.659V126.534C73.3154 124.914 72.0056 123.6 70.3888 123.6Z" fill="#1D1C1B"/>
<path d="M153.718 123.6H86.0634C84.4477 123.6 83.1369 124.914 83.1369 126.534V130.659C83.1369 132.279 84.4477 133.592 86.0634 133.592H153.718C155.334 133.592 156.645 132.279 156.645 130.659V126.534C156.645 124.914 155.334 123.6 153.718 123.6Z" fill="#1D1C1B"/>
<path d="M177.866 123.6H218.045C219.662 123.6 220.971 124.914 220.971 126.534V130.659C220.971 132.279 219.662 133.592 218.045 133.592H177.866C176.25 133.592 174.939 132.279 174.939 130.659V126.534C174.939 124.914 176.25 123.6 177.866 123.6Z" fill="#1D1C1B"/>
<path d="M229.067 109.278H254.485C256.101 109.278 257.411 110.591 257.411 112.211V116.336C257.411 117.956 256.101 119.269 254.485 119.269H229.067C227.451 119.269 226.14 117.956 226.14 116.336V112.211C226.14 110.591 227.451 109.278 229.067 109.278Z" fill="#1D1C1B"/>
<path d="M191.278 94.6455H186.659C185.043 94.6455 183.732 95.9587 183.732 97.5788V101.704C183.732 103.324 185.043 104.637 186.659 104.637H191.278C192.895 104.637 194.206 103.324 194.206 101.704V97.5788C194.206 95.9587 192.895 94.6455 191.278 94.6455Z" fill="#1D1C1B"/>
<path d="M120.868 195.054H133.138C134.754 195.054 136.064 196.367 136.064 197.987V202.433C136.064 204.053 134.754 205.366 133.138 205.366H120.868C119.253 205.366 117.942 204.053 117.942 202.433V197.987C117.942 196.367 119.253 195.054 120.868 195.054Z" fill="#1D1C1B"/>
<path d="M158.372 195.054H152.346C150.73 195.054 149.42 196.367 149.42 197.987V202.433C149.42 204.053 150.73 205.366 152.346 205.366H158.372C159.989 205.366 161.299 204.053 161.299 202.433V197.987C161.299 196.367 159.989 195.054 158.372 195.054Z" fill="#1D1C1B"/>
<path d="M169.702 195.054H195.875C197.492 195.054 198.802 196.367 198.802 197.987V202.433C198.802 204.053 197.492 205.366 195.875 205.366H169.702C168.087 205.366 166.776 204.053 166.776 202.433V197.987C166.776 196.367 168.087 195.054 169.702 195.054Z" fill="#1D1C1B"/>
<path d="M193.189 180.731H185.744C184.129 180.731 182.818 182.044 182.818 183.664V188.11C182.818 189.73 184.129 191.043 185.744 191.043H193.189C194.804 191.043 196.115 189.73 196.115 188.11V183.664C196.115 182.044 194.804 180.731 193.189 180.731Z" fill="#1D1C1B"/>
<path d="M95.8972 195.054H100.517C102.133 195.054 103.444 196.367 103.444 197.987V202.433C103.444 204.053 102.133 205.366 100.517 205.366H95.8972C94.2815 205.366 92.9706 204.053 92.9706 202.433V197.987C92.9706 196.367 94.2815 195.054 95.8972 195.054Z" fill="#1D1C1B"/>
<path d="M141.313 212.298C141.313 210.683 142.628 209.365 144.24 209.365H148.859C150.471 209.365 151.787 210.683 151.787 212.298V216.744C151.787 218.36 150.471 219.677 148.859 219.677H144.24C142.628 219.677 141.313 218.36 141.313 216.744V212.298Z" fill="#1D1C1B"/>
<path d="M134.006 223.688H138.123C139.74 223.688 141.05 225.001 141.05 226.621V231.067C141.05 232.687 139.74 234 138.123 234H134.006C132.391 234 131.08 232.687 131.08 231.067V226.621C131.08 225.001 132.391 223.688 134.006 223.688Z" fill="#1D1C1B"/>
<path d="M99.7382 109.278H127.089C128.705 109.278 130.016 110.591 130.016 112.211V116.336C130.016 117.956 128.705 119.269 127.089 119.269H99.7382C98.1225 119.269 96.8117 117.956 96.8117 116.336V112.211C96.8117 110.591 98.1225 109.278 99.7382 109.278Z" fill="#1D1C1B"/>
<path d="M175.626 80.3227H161.31C159.694 80.3227 158.383 81.636 158.383 83.2561V87.381C158.383 89.001 159.694 90.3142 161.31 90.3142H175.626C177.243 90.3142 178.552 89.001 178.552 87.381V83.2561C178.552 81.636 177.243 80.3227 175.626 80.3227Z" fill="#1D1C1B"/>
<path d="M148.927 94.6455H175.626C177.243 94.6455 178.552 95.9587 178.552 97.5788V101.704C178.552 103.324 177.243 104.637 175.626 104.637H148.927C147.311 104.637 146.001 103.324 146.001 101.704V97.5788C146.001 95.9587 147.311 94.6455 148.927 94.6455Z" fill="#1D1C1B"/>
<path d="M263.322 123.6H250.185C248.569 123.6 247.258 124.914 247.258 126.534V130.659C247.258 132.279 248.569 133.592 250.185 133.592H263.322C264.939 133.592 266.25 132.279 266.25 130.659V126.534C266.25 124.914 264.939 123.6 263.322 123.6Z" fill="#1D1C1B"/>
<path d="M70.9136 137.923H158.886C160.503 137.923 161.813 139.236 161.813 140.856V144.981C161.813 146.601 160.503 147.915 158.886 147.915H70.9136C69.2979 147.915 67.9871 146.601 67.9871 144.981V140.856C67.9871 139.236 69.2979 137.923 70.9136 137.923Z" fill="#1D1C1B"/>
<path d="M186.888 166.569H156.084C154.469 166.569 153.158 167.882 153.158 169.502V173.627C153.158 175.247 154.469 176.56 156.084 176.56H186.888C188.504 176.56 189.814 175.247 189.814 173.627V169.502C189.814 167.882 188.504 166.569 186.888 166.569Z" fill="#1D1C1B"/>
<path d="M86.0634 152.246H199.408C201.024 152.246 202.334 153.559 202.334 155.179V159.304C202.334 160.924 201.024 162.237 199.408 162.237H86.0634C84.4477 162.237 83.1369 160.924 83.1369 159.304V155.179C83.1369 153.559 84.4477 152.246 86.0634 152.246Z" fill="#1D1C1B"/>
<path d="M106.291 166.569H67.8274C66.2117 166.569 64.9008 167.882 64.9008 169.502V173.627C64.9008 175.247 66.2117 176.56 67.8274 176.56H106.291C107.908 176.56 109.218 175.247 109.218 173.627V169.502C109.218 167.882 107.908 166.569 106.291 166.569Z" fill="#1D1C1B"/>
<path d="M108.28 180.731H116.959C118.575 180.731 119.886 182.044 119.886 183.664V188.11C119.886 189.73 118.575 191.043 116.959 191.043H108.28C106.664 191.043 105.354 189.73 105.354 188.11V183.664C105.354 182.044 106.664 180.731 108.28 180.731Z" fill="#1D1C1B"/>
<path d="M169.371 180.731H159.572C157.956 180.731 156.645 182.044 156.645 183.664V188.11C156.645 189.73 157.956 191.043 159.572 191.043H169.371C170.987 191.043 172.298 189.73 172.298 188.11V183.664C172.298 182.044 170.987 180.731 169.371 180.731Z" fill="#1D1C1B"/>
<path d="M81.4441 180.731H90.283C91.8998 180.731 93.2096 182.044 93.2096 183.664V188.11C93.2096 189.73 91.8998 191.043 90.283 191.043H81.4441C79.8284 191.043 78.5176 189.73 78.5176 188.11V183.664C78.5176 182.044 79.8284 180.731 81.4441 180.731Z" fill="#1D1C1B"/>
<path d="M209.904 137.923H177.866C176.25 137.923 174.939 139.236 174.939 140.856V144.981C174.939 146.601 176.25 147.915 177.866 147.915H209.904C211.521 147.915 212.83 146.601 212.83 144.981V140.856C212.83 139.236 211.521 137.923 209.904 137.923Z" fill="#1D1C1B"/>
</g>
<defs>
<linearGradient id="paint0_linear_212_486" x1="314.667" y1="210.054" x2="1.65971e-09" y2="210.054" gradientUnits="userSpaceOnUse">
<stop stop-color="#F6AFFF"/>
<stop offset="0.1" stop-color="#FFB592"/>
<stop offset="0.2" stop-color="#FAB920"/>
<stop offset="0.331956" stop-color="#84DB1A"/>
<stop offset="0.646228" stop-color="#F6F6F6"/>
</linearGradient>
<linearGradient id="paint1_linear_212_486" x1="0" y1="152.341" x2="300" y2="152.341" gradientUnits="userSpaceOnUse">
<stop stop-color="#E9E8E7"/>
<stop offset="1" stop-color="#E9E8E7" stop-opacity="0"/>
</linearGradient>
<clipPath id="clip0_212_486">
<rect width="300" height="300" fill="white"/>
</clipPath>
</defs>
</svg>
